<svg width="18" height="18" viewBox="0 0 18 18" fill="none" xmlns="http://www.w3.org/2000/svg">
<circle cx="9" cy="9" r="9" fill="#715F76"/>
<path d="M13.4899 4.51C13.2793 4.29715 13.0166 4.14316 12.7281 4.06333C12.4395 3.98351 12.135 3.98063 11.8449 4.055L6.94493 5.28C6.54217 5.37975 6.17426 5.58752 5.88086 5.88093C5.58746 6.17433 5.37968 6.54223 5.27993 6.945L4.05493 11.85C3.90493 12.445 4.07493 13.06 4.50993 13.495C4.83993 13.82 5.27493 14 5.72493 14C5.86493 14 6.00993 13.985 6.14993 13.945L11.0549 12.72C11.4577 12.6202 11.8256 12.4125 12.119 12.1191C12.4124 11.8257 12.6202 11.4578 12.7199 11.055L13.9449 6.15C14.0949 5.555 13.9249 4.94 13.4899 4.51ZM8.99993 10.94C7.92993 10.94 7.05993 10.07 7.05993 9C7.05993 7.93 7.92993 7.06 8.99993 7.06C10.0699 7.06 10.9399 7.93 10.9399 9C10.9399 10.07 10.0699 10.94 8.99993 10.94Z" fill="#1D1D1D"/>
</svg>
