<svg width="80" height="80" viewBox="0 0 80 80" fill="none" xmlns="http://www.w3.org/2000/svg">
<path d="M79.0373 32.045C80.0851 38.0394 73.6568 36.4427 73.6568 36.4427C70.9665 28.9357 66.6621 29.636 66.6621 29.636C70.032 32.073 70.2869 34.1458 70.2869 34.1458C61.3099 27.8433 49.1046 32.9133 44.4603 35.2943C41.855 31.6528 36.5878 23.5015 38.4568 19.8041C40.9205 14.9581 45.9329 17.7312 45.9329 17.7312C56.0709 17.5632 55.5046 13.9777 55.5046 13.9777C52.8143 16.0506 44.8851 13.9777 44.8851 13.9777C51.7665 13.9777 54.6833 11.2046 54.6833 11.2046C49.5577 12.4651 43.8373 7.05897 43.8373 7.05897C41.7417 -3.55727 32.0568 0.95253 32.0568 0.95253C38.117 -0.0838842 36.5028 6.27466 36.5028 6.27466C28.9134 8.93572 29.6214 13.1934 29.6214 13.1934C32.0851 9.86009 34.1807 9.60799 34.1807 9.60799C27.2426 19.2719 33.9258 32.7172 35.9081 36.2186C32.2833 38.7116 23.7878 44.2018 19.9647 42.2971C15.0656 39.8601 17.8692 34.9021 17.8692 34.9021C17.7559 24.8741 14.1311 25.4343 14.1311 25.4343C16.2267 28.0954 14.1311 35.9385 14.1311 35.9385C14.1311 29.1318 11.3276 26.2466 11.3276 26.2466C12.6019 31.3167 7.13643 36.9749 7.13643 36.9749C-3.59632 39.0478 0.962972 48.6276 0.962972 48.6276C-0.0848154 42.6332 6.3435 44.2298 6.3435 44.2298C9.03377 51.7368 13.3382 51.0366 13.3382 51.0366C9.96828 48.5996 9.71342 46.5268 9.71342 46.5268C19.2001 53.1934 32.3117 47.143 36.2763 45.0142C38.9382 48.7957 43.894 56.5828 42.0532 60.1962C39.5895 65.0422 34.5771 62.2691 34.5771 62.2691C24.4391 62.3811 25.0055 65.9665 25.0055 65.9665C27.6957 63.8937 35.6249 65.9665 35.6249 65.9665C28.7435 65.9665 25.8267 68.7396 25.8267 68.7396C30.9524 67.4791 36.6727 72.8853 36.6727 72.8853C38.7683 83.5016 48.4532 78.9917 48.4532 78.9917C42.3931 80.0282 44.0072 73.6696 44.0072 73.6696C51.5966 71.0086 50.8886 66.7509 50.8886 66.7509C48.4249 70.0842 46.3294 70.3363 46.3294 70.3363C53.1258 60.8965 46.8674 47.8153 44.7435 43.9777C48.5948 41.3167 56.3825 36.5548 59.9789 38.3475C64.878 40.7845 62.0745 45.7424 62.0745 45.7424C62.1878 55.7705 65.8125 55.2102 65.8125 55.2102C63.717 52.5492 65.8125 44.706 65.8125 44.706C65.8125 51.5128 68.6161 54.3979 68.6161 54.3979C67.3417 49.3279 72.8072 43.6696 72.8072 43.6696C83.5966 41.6248 79.0373 32.045 79.0373 32.045Z" fill="url(#paint0_linear_78_68)"/>
<defs>
<linearGradient id="paint0_linear_78_68" x1="39.9974" y1="0.000976563" x2="39.9974" y2="79.9433" gradientUnits="userSpaceOnUse">
<stop stop-color="#DBA473"/>
<stop offset="1" stop-color="#DBA473"/>
</linearGradient>
</defs>
</svg>
