<svg xmlns="http://www.w3.org/2000/svg" width="24" height="24" fill="none" viewBox="0 0 24 24">
  <path fill="#7C757D" d="M5.408 15.408c0-.4.33-.73.73-.73.4 0 .73.33.73.73 0 2.82 2.3 5.12 5.12 5.12 2.82 0 5.12-2.3 5.12-5.12a5.13 5.13 0 0 0-5.12-5.12c-.4 0-.73-.33-.73-.73 0-.4.33-.73.73-.73 3.63 0 6.59 2.95 6.59 6.59 0 3.64-2.95 6.58-6.58 6.58s-6.59-2.95-6.59-6.59Z"/>
  <path fill="#7C757D" d="M18.59 8.59c0 .4-.33.73-.73.73-.4 0-.73-.33-.73-.73a5.13 5.13 0 0 0-5.12-5.12 5.13 5.13 0 0 0-5.12 5.12c0 2.82 2.3 5.12 5.12 5.12.4 0 .73.33.73.73 0 .4-.33.73-.73.73-3.63 0-6.59-2.95-6.59-6.59C5.42 4.94 8.37 2 12 2s6.59 2.95 6.59 6.59Z"/>
</svg>
