<svg width="26" height="26" viewBox="0 0 26 26" fill="none" xmlns="http://www.w3.org/2000/svg">
<path d="M15.1667 10.075V13.2167H17.9833C18.2 13.2167 18.3083 13.4333 18.3083 13.65L17.875 15.7083C17.875 15.8167 17.6583 15.925 17.55 15.925H15.1667V23.8333H11.9167V16.0333H10.075C9.85833 16.0333 9.75 15.925 9.75 15.7083V13.65C9.75 13.4333 9.85833 13.325 10.075 13.325H11.9167V9.75C11.9167 7.90833 13.325 6.5 15.1667 6.5H18.0917C18.3083 6.5 18.4167 6.60833 18.4167 6.825V9.425C18.4167 9.64167 18.3083 9.75 18.0917 9.75H15.4917C15.275 9.75 15.1667 9.85833 15.1667 10.075Z" stroke="#E3E3E3" stroke-width="1.5" stroke-miterlimit="10" stroke-linecap="round"/>
<path d="M16.2493 23.8334H9.74935C4.33268 23.8334 2.16602 21.6667 2.16602 16.2501V9.75008C2.16602 4.33341 4.33268 2.16675 9.74935 2.16675H16.2493C21.666 2.16675 23.8327 4.33341 23.8327 9.75008V16.2501C23.8327 21.6667 21.666 23.8334 16.2493 23.8334Z" stroke="#E3E3E3" stroke-width="1.5" stroke-linecap="round" stroke-linejoin="round"/>
</svg>
