<svg xmlns="http://www.w3.org/2000/svg" width="330" height="264" fill="none" viewBox="0 0 330 264">
  <path fill="#DBA473" d="M153.294 248.48v-3.613h7.226v7.226h-7.226v-3.613Zm8.671 0v-3.613h7.226v7.226h-7.226v-3.613Zm9.827 0v-2.457h4.914v4.914h-4.914v-2.457Zm-24.857 0v-1.3h2.602v2.601h-2.602v-1.301Zm-2.312-8.671v-3.613h7.226v7.226h-7.226v-3.613Zm8.671 0v-3.613h7.226v7.226h-7.226v-3.613Zm8.671 0v-3.613h7.226v7.226h-7.226v-3.613Zm-24.857 0v-2.457h4.914v4.914h-4.914v-2.457Zm34.684 0v-2.457h4.914v4.914h-4.914v-2.457Zm-59.541 0v-1.3h2.602v2.601h-2.602v-1.301Zm8.671 0v-1.3h2.602v2.601h-2.602v-1.301Zm8.671 0v-1.3h2.602v2.601h-2.602v-1.301Zm104.052 0v-1.3h2.601v2.601h-2.601v-1.301Zm-123.706-8.671v-3.613h7.226v7.226h-7.226v-3.613Zm8.671 0v-3.613h7.226v7.226h-7.226v-3.613Zm8.671 0v-3.613h7.226v7.226h-7.226v-3.613Zm8.671 0v-3.613h7.226v7.226h-7.226v-3.613Zm8.671 0v-3.613h7.226v7.226h-7.226v-3.613Zm8.671 0v-3.613h7.226v7.226h-7.226v-3.613Zm8.671 0v-3.613h7.226v7.226h-7.226v-3.613Zm8.671 0v-3.613h7.226v7.226h-7.226v-3.613Zm52.026 0v-3.613h7.226v7.226h-7.226v-3.613Zm8.671 0v-3.613h7.226v7.226h-7.226v-3.613Zm8.671 0v-3.613h7.225v7.226h-7.225v-3.613Zm-137.58 0v-2.456h4.914v4.913h-4.914v-2.457Zm-7.515 0v-1.3h2.601v2.601h-2.6v-1.301Zm86.71 0v-1.3h2.601v2.601h-2.601v-1.301Zm34.684 0v-1.3h2.601v2.601h-2.601v-1.301Zm34.684 0v-1.3h2.601v2.601h-2.601v-1.301Zm-158.39-8.671v-3.613h7.226v7.226h-7.226v-3.613Zm8.671 0v-3.613h7.226v7.226h-7.226v-3.613Zm8.671 0v-3.613h7.226v7.226h-7.226v-3.613Zm8.671 0v-3.613h7.226v7.226h-7.226v-3.613Zm8.671 0v-3.613h7.226v7.226h-7.226v-3.613Zm8.671 0v-3.613h7.226v7.226h-7.226v-3.613Zm8.671 0v-3.613h7.226v7.226h-7.226v-3.613Zm8.671 0v-3.613h7.226v7.226h-7.226v-3.613Zm8.671 0v-3.613h7.226v7.226h-7.226v-3.613Zm8.671 0v-3.613h7.226v7.226h-7.226v-3.613Zm8.671 0v-3.613h7.226v7.226h-7.226v-3.613Zm26.013 0v-3.613h7.226v7.226h-7.226v-3.613Zm8.671 0v-3.613h7.226v7.226h-7.226v-3.613Zm8.671 0v-3.613h7.226v7.226h-7.226v-3.613Zm8.671 0v-3.613h7.226v7.226h-7.226v-3.613Zm8.671 0v-3.613h7.225v7.226h-7.225v-3.613Zm8.671 0v-3.613h7.225v7.226h-7.225v-3.613Zm-59.541 0v-2.456h4.913v4.913h-4.913v-2.457Zm8.671 0v-2.456h4.913v4.913h-4.913v-2.457Zm-111.567 0v-1.3h2.601v2.601h-2.6v-1.301Zm173.42 0v-1.3h2.601v2.601h-2.601v-1.301Zm-175.732-8.671v-3.613h7.226v7.226h-7.226v-3.613Zm8.671 0v-3.613h7.226v7.226h-7.226v-3.613Zm8.671 0v-3.613h7.226v7.226h-7.226v-3.613Zm8.671 0v-3.613h7.226v7.226h-7.226v-3.613Zm8.671 0v-3.613h7.226v7.226h-7.226v-3.613Zm8.671 0v-3.613h7.226v7.226h-7.226v-3.613Zm8.671 0v-3.613h7.226v7.226h-7.226v-3.613Zm8.671 0v-3.613h7.226v7.226h-7.226v-3.613Zm8.671 0v-3.613h7.226v7.226h-7.226v-3.613Zm8.671 0v-3.613h7.226v7.226h-7.226v-3.613Zm8.671 0v-3.613h7.226v7.226h-7.226v-3.613Zm8.671 0v-3.613h7.226v7.226h-7.226v-3.613Zm8.671 0v-3.613h7.226v7.226h-7.226v-3.613Zm8.671 0v-3.613h7.226v7.226h-7.226v-3.613Zm8.671 0v-3.613h7.226v7.226h-7.226v-3.613Zm8.671 0v-3.613h7.226v7.226h-7.226v-3.613Zm8.671 0v-3.613h7.226v7.226h-7.226v-3.613Zm8.671 0v-3.613h7.226v7.226h-7.226v-3.613Zm8.671 0v-3.613h7.225v7.226h-7.225v-3.613Zm8.671 0v-3.613h7.225v7.226h-7.225v-3.613Zm8.671 0v-3.613h7.225v7.226h-7.225v-3.613Zm-179.779 0v-1.3h2.601v2.601h-2.6v-1.301Zm15.03-8.671v-3.613h7.226v7.226h-7.226v-3.613Zm8.671 0v-3.613h7.226v7.226h-7.226v-3.613Zm8.671 0v-3.613h7.226v7.226h-7.226v-3.613Zm8.671 0v-3.613h7.226v7.226h-7.226v-3.613Zm8.671 0v-3.613h7.226v7.226h-7.226v-3.613Zm8.671 0v-3.613h7.226v7.226h-7.226v-3.613Zm8.671 0v-3.613h7.226v7.226h-7.226v-3.613Zm8.671 0v-3.613h7.226v7.226h-7.226v-3.613Zm8.671 0v-3.613h7.226v7.226h-7.226v-3.613Zm8.671 0v-3.613h7.226v7.226h-7.226v-3.613Zm8.671 0v-3.613h7.226v7.226h-7.226v-3.613Zm8.671 0v-3.613h7.226v7.226h-7.226v-3.613Zm8.671 0v-3.613h7.226v7.226h-7.226v-3.613Zm8.671 0v-3.613h7.226v7.226h-7.226v-3.613Zm8.671 0v-3.613h7.226v7.226h-7.226v-3.613Zm8.671 0v-3.613h7.226v7.226h-7.226v-3.613Zm8.671 0v-3.613h7.226v7.226h-7.226v-3.613Zm8.671 0v-3.613h7.225v7.226h-7.225v-3.613Zm8.671 0v-3.613h7.225v7.226h-7.225v-3.613Zm-163.593 0v-2.456h4.914v4.913h-4.914v-2.457Zm173.42 0v-2.456h4.913v4.913h-4.913v-2.457Zm9.827 0v-1.3h2.601v2.601h-2.601v-1.301Zm-175.732-8.671v-3.613h7.226v7.226h-7.226v-3.613Zm8.671 0v-3.613h7.226v7.226h-7.226v-3.613Zm8.671 0v-3.613h7.226v7.226h-7.226v-3.613Zm8.671 0v-3.613h7.226v7.226h-7.226v-3.613Zm8.671 0v-3.613h7.226v7.226h-7.226v-3.613Zm8.671 0v-3.613h7.226v7.226h-7.226v-3.613Zm8.671 0v-3.613h7.226v7.226h-7.226v-3.613Zm8.671 0v-3.613h7.226v7.226h-7.226v-3.613Zm8.671 0v-3.613h7.226v7.226h-7.226v-3.613Zm8.671 0v-3.613h7.226v7.226h-7.226v-3.613Zm8.671 0v-3.613h7.226v7.226h-7.226v-3.613Zm8.671 0v-3.613h7.226v7.226h-7.226v-3.613Zm8.671 0v-3.613h7.226v7.226h-7.226v-3.613Zm8.671 0v-3.613h7.226v7.226h-7.226v-3.613Zm8.671 0v-3.613h7.226v7.226h-7.226v-3.613Zm8.671 0v-3.613h7.226v7.226h-7.226v-3.613Zm8.671 0v-3.613h7.226v7.226h-7.226v-3.613Zm8.671 0v-3.613h7.225v7.226h-7.225v-3.613Zm8.671 0v-3.613h7.225v7.226h-7.225v-3.613Zm-162.437 0v-1.3h2.601v2.601h-2.6v-1.301Zm6.36-8.671v-3.612h7.225v7.225h-7.226v-3.613Zm8.67 0v-3.612h7.226v7.225h-7.226v-3.613Zm8.671 0v-3.612h7.226v7.225h-7.226v-3.613Zm8.671 0v-3.612h7.226v7.225h-7.226v-3.613Zm8.671 0v-3.612h7.226v7.225h-7.226v-3.613Zm8.671 0v-3.612h7.226v7.225h-7.226v-3.613Zm8.671 0v-3.612h7.226v7.225h-7.226v-3.613Zm8.671 0v-3.612h7.226v7.225h-7.226v-3.613Zm8.671 0v-3.612h7.226v7.225h-7.226v-3.613Zm8.671 0v-3.612h7.226v7.225h-7.226v-3.613Zm8.671 0v-3.612h7.226v7.225h-7.226v-3.613Zm8.671 0v-3.612h7.226v7.225h-7.226v-3.613Zm8.671 0v-3.612h7.226v7.225h-7.226v-3.613Zm8.671 0v-3.612h7.226v7.225h-7.226v-3.613Zm8.671 0v-3.612h7.226v7.225h-7.226v-3.613Zm8.671 0v-3.612h7.226v7.225h-7.226v-3.613Zm8.671 0v-3.612h7.226v7.225h-7.226v-3.613Zm8.671 0v-3.612h7.225v7.225h-7.225v-3.613Zm8.671 0v-3.612h7.225v7.225h-7.225v-3.613Zm-147.407-8.671V175.5h7.226v7.225h-7.226v-3.613Zm8.671 0V175.5h7.226v7.225h-7.226v-3.613Zm8.671 0V175.5h7.226v7.225h-7.226v-3.613Zm8.671 0V175.5h7.226v7.225h-7.226v-3.613Zm8.671 0V175.5h7.226v7.225h-7.226v-3.613Zm8.671 0V175.5h7.226v7.225h-7.226v-3.613Zm8.671 0V175.5h7.226v7.225h-7.226v-3.613Zm8.671 0V175.5h7.226v7.225h-7.226v-3.613Zm8.671 0V175.5h7.226v7.225h-7.226v-3.613Zm8.671 0V175.5h7.226v7.225h-7.226v-3.613Zm8.671 0V175.5h7.226v7.225h-7.226v-3.613Zm8.671 0V175.5h7.226v7.225h-7.226v-3.613Zm8.671 0V175.5h7.226v7.225h-7.226v-3.613Zm8.671 0V175.5h7.226v7.225h-7.226v-3.613Zm8.671 0V175.5h7.226v7.225h-7.226v-3.613Zm8.671 0V175.5h7.226v7.225h-7.226v-3.613Zm8.671 0V175.5h7.225v7.225h-7.225v-3.613Zm8.671 0V175.5h7.225v7.225h-7.225v-3.613Zm-154.922 0v-2.456h4.914v4.913h-4.914v-2.457Zm165.905 0v-1.3h2.601v2.601h-2.601v-1.301Zm-158.39-8.671v-3.612h7.226v7.225h-7.226v-3.613Zm8.671 0v-3.612h7.226v7.225h-7.226v-3.613Zm8.671 0v-3.612h7.226v7.225h-7.226v-3.613Zm8.671 0v-3.612h7.226v7.225h-7.226v-3.613Zm8.671 0v-3.612h7.226v7.225h-7.226v-3.613Zm8.671 0v-3.612h7.226v7.225h-7.226v-3.613Zm8.671 0v-3.612h7.226v7.225h-7.226v-3.613Zm8.671 0v-3.612h7.226v7.225h-7.226v-3.613Zm8.671 0v-3.612h7.226v7.225h-7.226v-3.613Zm8.671 0v-3.612h7.226v7.225h-7.226v-3.613Zm8.671 0v-3.612h7.226v7.225h-7.226v-3.613Zm8.671 0v-3.612h7.226v7.225h-7.226v-3.613Zm8.671 0v-3.612h7.226v7.225h-7.226v-3.613Zm8.671 0v-3.612h7.226v7.225h-7.226v-3.613Zm8.671 0v-3.612h7.226v7.225h-7.226v-3.613Zm8.671 0v-3.612h7.226v7.225h-7.226v-3.613Zm8.671 0v-3.612h7.225v7.225h-7.225v-3.613Zm8.671 0v-3.612h7.225v7.225h-7.225v-3.613Zm-153.766 0v-1.3h2.601v2.601h-2.6v-1.301Zm164.749 0v-1.3h2.601v2.601h-2.601v-1.301Zm-149.719-8.67v-3.613h7.226v7.225h-7.226v-3.612Zm8.671 0v-3.613h7.226v7.225h-7.226v-3.612Zm8.671 0v-3.613h7.226v7.225h-7.226v-3.612Zm8.671 0v-3.613h7.226v7.225h-7.226v-3.612Zm8.671 0v-3.613h7.226v7.225h-7.226v-3.612Zm8.671 0v-3.613h7.226v7.225h-7.226v-3.612Zm8.671 0v-3.613h7.226v7.225h-7.226v-3.612Zm8.671 0v-3.613h7.226v7.225h-7.226v-3.612Zm8.671 0v-3.613h7.226v7.225h-7.226v-3.612Zm8.671 0v-3.613h7.226v7.225h-7.226v-3.612Zm8.671 0v-3.613h7.226v7.225h-7.226v-3.612Zm8.671 0v-3.613h7.226v7.225h-7.226v-3.612Zm8.671 0v-3.613h7.226v7.225h-7.226v-3.612Zm8.671 0v-3.613h7.226v7.225h-7.226v-3.612Zm8.671 0v-3.613h7.226v7.225h-7.226v-3.612Zm8.671 0v-3.613h7.225v7.225h-7.225v-3.612Zm8.671 0v-3.613h7.225v7.225h-7.225v-3.612Zm-146.251 0v-2.457h4.914v4.913h-4.914v-2.456Zm7.515-8.671v-3.613h7.226v7.225h-7.226V153.1Zm8.671 0v-3.613h7.226v7.225h-7.226V153.1Zm8.671 0v-3.613h7.226v7.225h-7.226V153.1Zm8.671 0v-3.613h7.226v7.225h-7.226V153.1Zm8.671 0v-3.613h7.226v7.225h-7.226V153.1Zm8.671 0v-3.613h7.226v7.225h-7.226V153.1Zm8.671 0v-3.613h7.226v7.225h-7.226V153.1Zm8.671 0v-3.613h7.226v7.225h-7.226V153.1Zm8.671 0v-3.613h7.226v7.225h-7.226V153.1Zm8.671 0v-3.613h7.226v7.225h-7.226V153.1Zm8.671 0v-3.613h7.226v7.225h-7.226V153.1Zm8.671 0v-3.613h7.226v7.225h-7.226V153.1Zm8.671 0v-3.613h7.226v7.225h-7.226V153.1Zm8.671 0v-3.613h7.226v7.225h-7.226V153.1Zm8.671 0v-3.613h7.226v7.225h-7.226V153.1Zm8.671 0v-3.613h7.225v7.225h-7.225V153.1Zm8.671 0v-3.613h7.225v7.225h-7.225V153.1Zm-146.251 0v-2.457h4.914v4.913h-4.914V153.1Zm-1.156-8.671v-3.613h7.226v7.225h-7.226v-3.612Zm8.671 0v-3.613h7.226v7.225h-7.226v-3.612Zm8.671 0v-3.613h7.226v7.225h-7.226v-3.612Zm8.671 0v-3.613h7.226v7.225h-7.226v-3.612Zm8.671 0v-3.613h7.226v7.225h-7.226v-3.612Zm8.671 0v-3.613h7.226v7.225h-7.226v-3.612Zm8.671 0v-3.613h7.226v7.225h-7.226v-3.612Zm8.671 0v-3.613h7.226v7.225h-7.226v-3.612Zm8.671 0v-3.613h7.226v7.225h-7.226v-3.612Zm8.671 0v-3.613h7.226v7.225h-7.226v-3.612Zm8.671 0v-3.613h7.226v7.225h-7.226v-3.612Zm8.671 0v-3.613h7.226v7.225h-7.226v-3.612Zm8.671 0v-3.613h7.226v7.225h-7.226v-3.612Zm8.671 0v-3.613h7.226v7.225h-7.226v-3.612Zm8.671 0v-3.613h7.226v7.225h-7.226v-3.612Zm8.671 0v-3.613h7.226v7.225h-7.226v-3.612Zm10.983 0v-1.301h2.601v2.601h-2.601v-1.3Zm-141.048-8.671v-3.613h7.226v7.225h-7.226v-3.612Zm8.671 0v-3.613h7.226v7.225h-7.226v-3.612Zm8.671 0v-3.613h7.226v7.225h-7.226v-3.612Zm8.671 0v-3.613h7.226v7.225h-7.226v-3.612Zm8.671 0v-3.613h7.226v7.225h-7.226v-3.612Zm8.671 0v-3.613h7.226v7.225h-7.226v-3.612Zm8.671 0v-3.613h7.226v7.225h-7.226v-3.612Zm8.671 0v-3.613h7.226v7.225h-7.226v-3.612Zm8.671 0v-3.613h7.226v7.225h-7.226v-3.612Zm8.671 0v-3.613h7.226v7.225h-7.226v-3.612Zm8.671 0v-3.613h7.226v7.225h-7.226v-3.612Zm8.671 0v-3.613h7.226v7.225h-7.226v-3.612Zm8.671 0v-3.613h7.226v7.225h-7.226v-3.612Zm8.671 0v-3.613h7.226v7.225h-7.226v-3.612Zm8.671 0v-3.613h7.226v7.225h-7.226v-3.612Zm8.671 0v-3.613h7.226v7.225h-7.226v-3.612Zm8.671 0v-3.613h7.225v7.225h-7.225v-3.612Zm-147.407-8.671v-3.613h7.226v7.226h-7.226v-3.613Zm8.671 0v-3.613h7.226v7.226h-7.226v-3.613Zm8.671 0v-3.613h7.226v7.226h-7.226v-3.613Zm8.671 0v-3.613h7.226v7.226h-7.226v-3.613Zm8.671 0v-3.613h7.226v7.226h-7.226v-3.613Zm8.671 0v-3.613h7.226v7.226h-7.226v-3.613Zm8.671 0v-3.613h7.226v7.226h-7.226v-3.613Zm8.671 0v-3.613h7.226v7.226h-7.226v-3.613Zm8.671 0v-3.613h7.226v7.226h-7.226v-3.613Zm8.671 0v-3.613h7.226v7.226h-7.226v-3.613Zm8.671 0v-3.613h7.226v7.226h-7.226v-3.613Zm8.671 0v-3.613h7.226v7.226h-7.226v-3.613Zm8.671 0v-3.613h7.226v7.226h-7.226v-3.613Zm8.671 0v-3.613h7.226v7.226h-7.226v-3.613Zm8.671 0v-3.613h7.226v7.226h-7.226v-3.613Zm8.671 0v-3.613h7.226v7.226h-7.226v-3.613Zm8.671 0v-3.613h7.226v7.226h-7.226v-3.613Zm8.671 0v-3.613h7.225v7.226h-7.225v-3.613Zm9.827 0v-2.457h4.913v4.913h-4.913v-2.456Zm-163.593 0v-1.301h2.601v2.601h-2.6v-1.3Zm6.36-8.671v-3.613h7.225v7.226h-7.226v-3.613Zm8.67 0v-3.613h7.226v7.226h-7.226v-3.613Zm8.671 0v-3.613h7.226v7.226h-7.226v-3.613Zm8.671 0v-3.613h7.226v7.226h-7.226v-3.613Zm8.671 0v-3.613h7.226v7.226h-7.226v-3.613Zm8.671 0v-3.613h7.226v7.226h-7.226v-3.613Zm8.671 0v-3.613h7.226v7.226h-7.226v-3.613Zm8.671 0v-3.613h7.226v7.226h-7.226v-3.613Zm8.671 0v-3.613h7.226v7.226h-7.226v-3.613Zm8.671 0v-3.613h7.226v7.226h-7.226v-3.613Zm8.671 0v-3.613h7.226v7.226h-7.226v-3.613Zm8.671 0v-3.613h7.226v7.226h-7.226v-3.613Zm8.671 0v-3.613h7.226v7.226h-7.226v-3.613Zm8.671 0v-3.613h7.226v7.226h-7.226v-3.613Zm8.671 0v-3.613h7.226v7.226h-7.226v-3.613Zm8.671 0v-3.613h7.226v7.226h-7.226v-3.613Zm8.671 0v-3.613h7.226v7.226h-7.226v-3.613Zm8.671 0v-3.613h7.225v7.226h-7.225v-3.613Zm8.671 0v-3.613h7.225v7.226h-7.225v-3.613Zm-162.437 0v-1.301h2.601v2.601h-2.6v-1.3Zm173.42 0v-1.301h2.601v2.601h-2.601v-1.3Zm8.671 0v-1.301h2.601v2.601h-2.601v-1.3Zm-175.732-8.671v-3.613h7.226v7.226h-7.226v-3.613Zm8.671 0v-3.613h7.226v7.226h-7.226v-3.613Zm8.671 0v-3.613h7.226v7.226h-7.226v-3.613Zm8.671 0v-3.613h7.226v7.226h-7.226v-3.613Zm8.671 0v-3.613h7.226v7.226h-7.226v-3.613Zm8.671 0v-3.613h7.226v7.226h-7.226v-3.613Zm8.671 0v-3.613h7.226v7.226h-7.226v-3.613Zm8.671 0v-3.613h7.226v7.226h-7.226v-3.613Zm8.671 0v-3.613h7.226v7.226h-7.226v-3.613Zm8.671 0v-3.613h7.226v7.226h-7.226v-3.613Zm8.671 0v-3.613h7.226v7.226h-7.226v-3.613Zm8.671 0v-3.613h7.226v7.226h-7.226v-3.613Zm8.671 0v-3.613h7.226v7.226h-7.226v-3.613Zm8.671 0v-3.613h7.226v7.226h-7.226v-3.613Zm8.671 0v-3.613h7.226v7.226h-7.226v-3.613Zm8.671 0v-3.613h7.226v7.226h-7.226v-3.613Zm8.671 0v-3.613h7.226v7.226h-7.226v-3.613Zm8.671 0v-3.613h7.225v7.226h-7.225v-3.613Zm8.671 0v-3.613h7.225v7.226h-7.225v-3.613Zm8.671 0v-3.613h7.225v7.226h-7.225v-3.613Zm9.827 0v-2.457h4.913v4.913h-4.913v-2.456Zm-180.935 0v-1.301h2.601v2.601h-2.6v-1.3Zm-2.312-8.671v-3.613h7.226v7.226h-7.226v-3.613Zm8.671 0v-3.613h7.226v7.226h-7.226v-3.613Zm8.671 0v-3.613h7.226v7.226h-7.226v-3.613Zm8.671 0v-3.613h7.226v7.226h-7.226v-3.613Zm8.671 0v-3.613h7.226v7.226h-7.226v-3.613Zm8.671 0v-3.613h7.226v7.226h-7.226v-3.613Zm8.671 0v-3.613h7.226v7.226h-7.226v-3.613Zm8.671 0v-3.613h7.226v7.226h-7.226v-3.613Zm8.671 0v-3.613h7.226v7.226h-7.226v-3.613Zm8.671 0v-3.613h7.226v7.226h-7.226v-3.613Zm8.671 0v-3.613h7.226v7.226h-7.226v-3.613Zm8.671 0v-3.613h7.226v7.226h-7.226v-3.613Zm8.671 0v-3.613h7.226v7.226h-7.226v-3.613Zm8.671 0v-3.613h7.226v7.226h-7.226v-3.613Zm8.671 0v-3.613h7.226v7.226h-7.226v-3.613Zm8.671 0v-3.613h7.226v7.226h-7.226v-3.613Zm8.671 0v-3.613h7.226v7.226h-7.226v-3.613Zm8.671 0v-3.613h7.226v7.226h-7.226v-3.613Zm8.671 0v-3.613h7.225v7.226h-7.225v-3.613Zm8.671 0v-3.613h7.225v7.226h-7.225v-3.613Zm8.671 0v-3.613h7.225v7.226h-7.225v-3.613Zm8.671 0v-3.613h7.225v7.226h-7.225v-3.613ZM75.255 92.403V88.79h7.226v7.226h-7.226v-3.613Zm8.671 0V88.79h7.226v7.226h-7.226v-3.613Zm8.671 0V88.79h7.226v7.226h-7.226v-3.613Zm8.671 0V88.79h7.226v7.226h-7.226v-3.613Zm8.671 0V88.79h7.226v7.226h-7.226v-3.613Zm8.671 0V88.79h7.226v7.226h-7.226v-3.613Zm8.671 0V88.79h7.226v7.226h-7.226v-3.613Zm8.671 0V88.79h7.226v7.226h-7.226v-3.613Zm8.671 0V88.79h7.226v7.226h-7.226v-3.613Zm8.671 0V88.79h7.226v7.226h-7.226v-3.613Zm8.671 0V88.79h7.226v7.226h-7.226v-3.613Zm8.671 0V88.79h7.226v7.226h-7.226v-3.613Zm8.671 0V88.79h7.226v7.226h-7.226v-3.613Zm8.671 0V88.79h7.226v7.226h-7.226v-3.613Zm8.671 0V88.79h7.226v7.226h-7.226v-3.613Zm8.671 0V88.79h7.226v7.226h-7.226v-3.613Zm8.671 0V88.79h7.226v7.226h-7.226v-3.613Zm8.671 0V88.79h7.226v7.226h-7.226v-3.613Zm8.671 0V88.79h7.226v7.226h-7.226v-3.613Zm8.671 0V88.79h7.225v7.226h-7.225v-3.613Zm8.671 0V88.79h7.225v7.226h-7.225v-3.613Zm8.671 0V88.79h7.225v7.226h-7.225v-3.613Zm8.671 0V88.79h7.225v7.226h-7.225v-3.613Zm-197.12 0v-1.3h2.6v2.6h-2.6v-1.3Zm-2.313-8.671v-3.613h7.226v7.226h-7.226v-3.613Zm8.671 0v-3.613h7.226v7.226h-7.226v-3.613Zm8.671 0v-3.613h7.226v7.226h-7.226v-3.613Zm8.671 0v-3.613h7.226v7.226h-7.226v-3.613Zm8.671 0v-3.613h7.226v7.226h-7.226v-3.613Zm8.671 0v-3.613h7.226v7.226h-7.226v-3.613Zm8.671 0v-3.613h7.226v7.226h-7.226v-3.613Zm8.671 0v-3.613h7.226v7.226h-7.226v-3.613Zm8.671 0v-3.613h7.226v7.226h-7.226v-3.613Zm8.671 0v-3.613h7.226v7.226h-7.226v-3.613Zm8.671 0v-3.613h7.226v7.226h-7.226v-3.613Zm8.671 0v-3.613h7.226v7.226h-7.226v-3.613Zm8.671 0v-3.613h7.226v7.226h-7.226v-3.613Zm8.671 0v-3.613h7.226v7.226h-7.226v-3.613Zm8.671 0v-3.613h7.226v7.226h-7.226v-3.613Zm8.671 0v-3.613h7.226v7.226h-7.226v-3.613Zm8.671 0v-3.613h7.226v7.226h-7.226v-3.613Zm8.671 0v-3.613h7.226v7.226h-7.226v-3.613Zm8.671 0v-3.613h7.226v7.226h-7.226v-3.613Zm8.671 0v-3.613h7.226v7.226h-7.226v-3.613Zm8.671 0v-3.613h7.225v7.226h-7.225v-3.613Zm8.671 0v-3.613h7.225v7.226h-7.225v-3.613Zm8.671 0v-3.613h7.225v7.226h-7.225v-3.613Zm8.671 0v-3.613h7.225v7.226h-7.225v-3.613Zm-206.948 0v-2.457h4.914v4.914h-4.914v-2.457Zm-7.515 0v-1.3h2.601v2.6h-2.6v-1.3Zm225.446 0v-1.3h2.601v2.6H277v-1.3ZM57.913 75.06v-3.613h7.226v7.226h-7.226V75.06Zm8.671 0v-3.613h7.226v7.226h-7.226V75.06Zm8.671 0v-3.613h7.226v7.226h-7.226V75.06Zm8.671 0v-3.613h7.226v7.226h-7.226V75.06Zm8.671 0v-3.613h7.226v7.226h-7.226V75.06Zm8.671 0v-3.613h7.226v7.226h-7.226V75.06Zm8.671 0v-3.613h7.226v7.226h-7.226V75.06Zm8.671 0v-3.613h7.226v7.226h-7.226V75.06Zm8.671 0v-3.613h7.226v7.226h-7.226V75.06Zm8.671 0v-3.613h7.226v7.226h-7.226V75.06Zm8.671 0v-3.613h7.226v7.226h-7.226V75.06Zm8.671 0v-3.613h7.226v7.226h-7.226V75.06Zm8.671 0v-3.613h7.226v7.226h-7.226V75.06Zm8.671 0v-3.613h7.226v7.226h-7.226V75.06Zm8.671 0v-3.613h7.226v7.226h-7.226V75.06Zm8.671 0v-3.613h7.226v7.226h-7.226V75.06Zm8.671 0v-3.613h7.226v7.226h-7.226V75.06Zm8.671 0v-3.613h7.226v7.226h-7.226V75.06Zm8.671 0v-3.613h7.226v7.226h-7.226V75.06Zm8.671 0v-3.613h7.226v7.226h-7.226V75.06Zm8.671 0v-3.613h7.226v7.226h-7.226V75.06Zm8.671 0v-3.613h7.225v7.226h-7.225V75.06Zm8.671 0v-3.613h7.225v7.226h-7.225V75.06Zm8.671 0v-3.613h7.225v7.226h-7.225V75.06Zm8.671 0v-3.613h7.225v7.226h-7.225V75.06Zm-215.619 0v-2.457h4.914v4.914h-4.914V75.06Zm226.602 0v-1.3h2.601v2.6H277v-1.3ZM57.913 66.39v-3.613h7.226v7.226h-7.226V66.39Zm8.671 0v-3.613h7.226v7.226h-7.226V66.39Zm8.671 0v-3.613h7.226v7.226h-7.226V66.39Zm34.684 0v-3.613h7.226v7.226h-7.226V66.39Zm8.671 0v-3.613h7.226v7.226h-7.226V66.39Zm8.671 0v-3.613h7.226v7.226h-7.226V66.39Zm8.671 0v-3.613h7.226v7.226h-7.226V66.39Zm8.671 0v-3.613h7.226v7.226h-7.226V66.39Zm8.671 0v-3.613h7.226v7.226h-7.226V66.39Zm8.671 0v-3.613h7.226v7.226h-7.226V66.39Zm8.671 0v-3.613h7.226v7.226h-7.226V66.39Zm8.671 0v-3.613h7.226v7.226h-7.226V66.39Zm8.671 0v-3.613h7.226v7.226h-7.226V66.39Zm8.671 0v-3.613h7.226v7.226h-7.226V66.39Zm8.671 0v-3.613h7.226v7.226h-7.226V66.39Zm8.671 0v-3.613h7.226v7.226h-7.226V66.39Zm8.671 0v-3.613h7.226v7.226h-7.226V66.39Zm8.671 0v-3.613h7.226v7.226h-7.226V66.39Zm8.671 0v-3.613h7.225v7.226h-7.225V66.39Zm8.671 0v-3.613h7.225v7.226h-7.225V66.39Zm-198.277 0v-2.457h4.914v4.914h-4.914V66.39Zm35.84 0v-1.3h2.601v2.6h-2.6v-1.3Zm8.671 0v-1.3h2.601v2.6h-2.6v-1.3Zm8.671 0v-1.3h2.602v2.6h-2.602v-1.3Zm6.359-8.671v-3.613h7.226v7.226h-7.226v-3.613Zm8.671 0v-3.613h7.226v7.226h-7.226v-3.613Zm8.671 0v-3.613h7.226v7.226h-7.226v-3.613Zm8.671 0v-3.613h7.226v7.226h-7.226v-3.613Zm8.671 0v-3.613h7.226v7.226h-7.226v-3.613Zm8.671 0v-3.613h7.226v7.226h-7.226v-3.613Zm8.671 0v-3.613h7.226v7.226h-7.226v-3.613Zm8.671 0v-3.613h7.226v7.226h-7.226v-3.613Zm8.671 0v-3.613h7.226v7.226h-7.226v-3.613Zm8.671 0v-3.613h7.226v7.226h-7.226v-3.613Zm8.671 0v-3.613h7.226v7.226h-7.226v-3.613Zm8.671 0v-3.613h7.226v7.226h-7.226v-3.613Zm8.671 0v-3.613h7.226v7.226h-7.226v-3.613Zm8.671 0v-3.613h7.226v7.226h-7.226v-3.613Zm9.827 0v-2.457h4.913v4.914h-4.913v-2.457Zm-163.593 0v-1.3h2.601v2.6h-2.6v-1.3Zm8.671 0v-1.3h2.601v2.6h-2.6v-1.3Zm26.013 0v-1.3h2.602v2.6h-2.602v-1.3Zm138.736 0v-1.3h2.601v2.6h-2.601v-1.3Zm-132.377-8.671v-3.613h7.226v7.226h-7.226v-3.613Zm34.684 0v-3.613h7.226v7.226h-7.226v-3.613Zm8.671 0v-3.613h7.226v7.226h-7.226v-3.613Zm8.671 0v-3.613h7.226v7.226h-7.226v-3.613Zm8.671 0v-3.613h7.226v7.226h-7.226v-3.613Zm8.671 0v-3.613h7.226v7.226h-7.226v-3.613Zm8.671 0v-3.613h7.226v7.226h-7.226v-3.613Zm8.671 0v-3.613h7.226v7.226h-7.226v-3.613Zm8.671 0v-3.613h7.226v7.226h-7.226v-3.613Zm8.671 0v-3.613h7.226v7.226h-7.226v-3.613Zm-111.567 0V46.59h4.914v4.914h-4.914v-2.457Zm18.498 0v-1.3h2.602v2.6h-2.602v-1.3Zm17.342 0v-1.3h2.602v2.6h-2.602v-1.3Zm86.71 0v-1.3h2.601v2.6h-2.601v-1.3Zm-63.009-8.671v-3.613h7.226v7.226h-7.226v-3.613Zm8.671 0v-3.613h7.226v7.226h-7.226v-3.613Zm8.671 0v-3.613h7.226v7.226h-7.226v-3.613Zm8.671 0v-3.613h7.226v7.226h-7.226v-3.613Zm8.671 0v-3.613h7.226v7.226h-7.226v-3.613Zm8.671 0v-3.613h7.226v7.226h-7.226v-3.613Zm-93.069 0v-1.3h2.602v2.6h-2.602v-1.3Zm34.684 0v-1.3h2.602v2.6h-2.602v-1.3Zm8.671 0v-1.3h2.602v2.6h-2.602v-1.3Zm15.03-8.671v-3.613h7.226v7.226h-7.226v-3.613Zm8.671 0v-3.613h7.226v7.226h-7.226v-3.613Zm8.671 0v-3.613h7.226v7.226h-7.226v-3.613Zm9.827 0v-2.457h4.913v4.914h-4.913v-2.457Zm-33.528 0v-1.3h2.602v2.6h-2.602v-1.3Zm43.355 0v-1.3h2.601v2.6h-2.601v-1.3Zm-36.996-8.671v-3.613h7.226v7.226h-7.226v-3.613Zm8.671 0v-3.613h7.226v7.226h-7.226v-3.613Zm9.827 0v-2.457h4.913v4.914h-4.913v-2.457Zm9.827 0v-1.3h2.601v2.6h-2.601v-1.3Zm-18.498-8.671v-2.457h4.914v4.914h-4.914v-2.457Zm-7.515 0v-1.3h2.601v2.6h-2.601v-1.3Z"/>
</svg>
