<svg width="26" height="26" viewBox="0 0 26 26" fill="none" xmlns="http://www.w3.org/2000/svg">
<path d="M9.74935 23.8334H16.2493C21.666 23.8334 23.8327 21.6667 23.8327 16.2501V9.75008C23.8327 4.33341 21.666 2.16675 16.2493 2.16675H9.74935C4.33268 2.16675 2.16602 4.33341 2.16602 9.75008V16.2501C2.16602 21.6667 4.33268 23.8334 9.74935 23.8334Z" stroke="#E3E3E3" stroke-width="1.5" stroke-linecap="round" stroke-linejoin="round"/>
<path d="M13.0007 16.7916C13.4986 16.7916 13.9916 16.6935 14.4517 16.503C14.9117 16.3124 15.3297 16.0331 15.6818 15.681C16.0339 15.3289 16.3131 14.911 16.5037 14.4509C16.6942 13.9909 16.7923 13.4978 16.7923 12.9999C16.7923 12.502 16.6942 12.0089 16.5037 11.5489C16.3131 11.0889 16.0339 10.6709 15.6818 10.3188C15.3297 9.96672 14.9117 9.68742 14.4517 9.49687C13.9916 9.30633 13.4986 9.20825 13.0007 9.20825C11.995 9.20825 11.0306 9.60773 10.3195 10.3188C9.60846 11.0299 9.20898 11.9943 9.20898 12.9999C9.20898 14.0055 9.60846 14.97 10.3195 15.681C11.0306 16.3921 11.995 16.7916 13.0007 16.7916Z" stroke="#E3E3E3" stroke-width="1.5" stroke-linecap="round" stroke-linejoin="round"/>
<path d="M19.1055 7.58325H19.1215" stroke="#E3E3E3" stroke-width="2" stroke-linecap="round" stroke-linejoin="round"/>
</svg>
